<?xml version="1.0" encoding="UTF-8" standalone="no"?>
<!-- Created with Inkscape (http://www.inkscape.org/) -->

<svg
   width="200"
   height="200"
   viewBox="0 0 52.916665 52.916666"
   version="1.1"
   id="svg1"
   xml:space="preserve"
   inkscape:version="1.4.2 (ebf0e940d0, 2025-05-08)"
   sodipodi:docname="logo-dark.svg"
   xmlns:inkscape="http://www.inkscape.org/namespaces/inkscape"
   xmlns:sodipodi="http://sodipodi.sourceforge.net/DTD/sodipodi-0.dtd"
   xmlns="http://www.w3.org/2000/svg"
   xmlns:svg="http://www.w3.org/2000/svg"><sodipodi:namedview
     id="namedview1"
     pagecolor="#ffffff"
     bordercolor="#000000"
     borderopacity="0.25"
     inkscape:showpageshadow="2"
     inkscape:pageopacity="0.0"
     inkscape:pagecheckerboard="0"
     inkscape:deskcolor="#d1d1d1"
     inkscape:document-units="mm"
     inkscape:zoom="2.7405874"
     inkscape:cx="5.1083939"
     inkscape:cy="73.889269"
     inkscape:window-width="1920"
     inkscape:window-height="1008"
     inkscape:window-x="0"
     inkscape:window-y="0"
     inkscape:window-maximized="1"
     inkscape:current-layer="g8" /><defs
     id="defs1"><rect
       x="45.608387"
       y="48.790368"
       width="83.085047"
       height="43.133514"
       id="rect1" /><clipPath
       id="clip0_3_3433"><rect
         width="24"
         height="24"
         fill="white"
         id="rect1-4" /></clipPath></defs><g
     inkscape:label="Layer 1"
     inkscape:groupmode="layer"
     id="layer1"><g
       id="g8"
       transform="matrix(1.794533,0,0,1.794533,-4.251858,-26.999518)"><g
         style="fill:#1a1a1a"
         id="g5"
         transform="matrix(0.52467225,0,0,0.52467225,14.600083,18.331702)"><path
           d="M 24.0421,-0.0476074 24.0001,1.04039 c -0.021,0.551 -0.583,13.56801 -5.071,18.05601 -1.7387,1.7346 -4.0587,2.7633 -6.5116,2.8872 C 9.9646,22.1075 7.5528,21.318 5.64809,19.7674 L 16.7081,8.70739 15.2931,7.29339 4.23309,18.3534 C 2.68244,16.449 1.89243,14.0376 2.01561,11.5848 2.1388,9.132 3.16644,6.81186 4.90009,5.07239 9.30009,0.672392 22.4001,0.0263926 22.9551,3.92579e-4 Z M 4.23309,18.3534 l -4.1899992,4.19 1.4139992,1.414 4.19,-4.19 C 5.12945,19.3448 4.65572,18.871 4.23309,18.3534 Z"
           fill="#000000"
           id="path1"
           style="fill:#cccccc" /></g><g
         style="fill:#e6e6e6"
         id="g7"
         transform="matrix(0.78465296,0,0,0.78465296,5.4428234,22.440171)"><path
           d="M 20,0 H 8 V 18 H 22 V 2.00002 C 22,0.895453 21.1046,0 20,0 Z"
           fill="#000000"
           id="path1-0"
           style="fill:#e6e6e6" /><path
           d="M 5,0 C 3.34316,0 2,1.34316 2,3 V 18.765 C 2.54914,18.2715 3.26169,17.999 4.00002,18 H 5.99998 V 0 Z"
           fill="#000000"
           id="path2-7"
           style="fill:#e6e6e6" /><path
           d="M 22,24 H 3.99995 c -1.10456,0 -2.00001,-0.8954 -2.00001,-2 0,-1.1046 0.89545,-2.0001 2.00001,-2.0001 H 22 Z"
           fill="#000000"
           id="path3"
           style="fill:#e6e6e6" /></g></g></g></svg>
